<svg width="256" height="256" viewBox="0 0 256 256" fill="none" xmlns="http://www.w3.org/2000/svg">
<g clip-path="url(#clip0_150_19)">
<path d="M127.512 256C124.059 256.002 120.666 255.093 117.674 253.367L86.3683 234.834C81.6961 232.219 83.9727 231.295 85.5179 230.756C90.488 229.223 95.2461 227.073 99.6807 224.355C100.051 224.181 100.461 224.105 100.869 224.136C101.278 224.166 101.671 224.302 102.012 224.529L126.068 238.82C126.516 239.057 127.015 239.181 127.522 239.181C128.028 239.181 128.527 239.057 128.975 238.82L222.784 184.674C223.225 184.413 223.59 184.041 223.842 183.595C224.094 183.149 224.224 182.645 224.22 182.132V73.8224C224.221 73.3024 224.088 72.7909 223.833 72.3375C223.578 71.8842 223.211 71.5043 222.766 71.2349L128.957 17.1348C128.516 16.883 128.016 16.7507 127.508 16.7507C127 16.7507 126.5 16.883 126.059 17.1348L32.3047 71.2532C31.8575 71.5177 31.4862 71.8931 31.2267 72.3433C30.9672 72.7934 30.8283 73.3029 30.8235 73.8224V182.087C30.8294 182.596 30.9684 183.095 31.2266 183.535C31.4848 183.974 31.8533 184.339 32.2956 184.592L58.0244 199.44C71.9678 206.407 80.5075 198.197 80.5075 189.95V83.057C80.5075 82.3295 80.7965 81.6318 81.3109 81.1174C81.8253 80.603 82.523 80.314 83.2504 80.314H95.1365C95.864 80.314 96.5617 80.603 97.0761 81.1174C97.5905 81.6318 97.8795 82.3295 97.8795 83.057V189.959C97.8795 208.565 87.7489 219.217 70.1026 219.217C62.4905 219.344 54.9985 217.309 48.4973 213.347L23.8381 199.203C20.847 197.457 18.3651 194.958 16.6392 191.955C14.9132 188.952 14.0034 185.55 14.0001 182.087V73.8224C13.9893 70.3525 14.893 66.941 16.6201 63.9314C18.3472 60.9218 20.8368 58.4203 23.8381 56.679L117.656 2.51486C120.679 0.864719 124.068 0 127.512 0C130.957 0 134.346 0.864719 137.369 2.51486L231.178 56.679C234.168 58.4223 236.65 60.9176 238.377 63.917C240.105 66.9164 241.018 70.3154 241.025 73.7767V182.087C241.021 185.551 240.109 188.954 238.382 191.957C236.654 194.96 234.171 197.458 231.178 199.203L137.369 253.367C134.372 255.097 130.972 256.005 127.512 256Z" fill="#83CD29"/>
<path d="M112.432 143.624C112.432 142.987 112.685 142.377 113.135 141.927C113.585 141.477 114.195 141.224 114.832 141.224H125.448C126.015 141.226 126.563 141.429 126.995 141.796C127.427 142.164 127.715 142.672 127.808 143.232C129.408 154.04 134.208 159.488 155.912 159.488C173.2 159.488 180.568 155.576 180.568 146.4C180.568 141.112 178.48 137.184 151.608 134.552C129.144 132.328 115.256 127.352 115.256 109.4C115.256 92.84 129.216 82.96 152.616 82.96C178.912 82.96 191.928 92.088 193.576 111.672C193.601 111.999 193.559 112.328 193.452 112.638C193.345 112.948 193.176 113.233 192.955 113.475C192.734 113.717 192.466 113.911 192.166 114.045C191.867 114.18 191.544 114.251 191.216 114.256H180.528C179.992 114.248 179.473 114.062 179.056 113.725C178.638 113.389 178.345 112.922 178.224 112.4C175.672 101.032 169.424 97.4 152.624 97.4C133.744 97.4 131.552 103.976 131.552 108.904C131.552 114.872 134.144 116.616 159.632 119.984C184.856 123.32 196.84 128.04 196.84 145.768C196.84 163.656 181.928 173.896 155.92 173.896C119.96 173.944 112.432 157.456 112.432 143.624Z" fill="#83CD29"/>
</g>
<defs>
<clipPath id="clip0_150_19">
<rect width="256" height="256" fill="white"/>
</clipPath>
</defs>
</svg>
